<?xml version="1.0" encoding="UTF-8"?>
<svg width="306px" height="72px" viewBox="0 0 306 72" version="1.1" xmlns="http://www.w3.org/2000/svg" xmlns:xlink="http://www.w3.org/1999/xlink">
    <!-- Generator: Sketch 45 (43475) - http://www.bohemiancoding.com/sketch -->
    <title>Page 1</title>
    <desc>Created with Sketch.</desc>
    <defs>
        <polygon id="path-1" points="0 72 305.925 72 305.925 0.001 0 0.001"></polygon>
    </defs>
    <g id="Page-3" stroke="none" stroke-width="1" fill="none" fill-rule="evenodd">
        <g id="Page-1" transform="translate(0.000000, -1.000000)">
            <path d="M48.2838,21.4931 L48.2898,59.3471 L71.9998,45.1871 L48.2838,21.4931 Z M51.0618,28.2621 L67.4208,44.6051 L51.0658,54.3731 L51.0618,28.2621 Z" id="Fill-1" fill="#99C14D"></path>
            <polygon id="Fill-2" fill="#808184" points="68.9436 1.0003 63.2776 4.3853 4.1646 39.7033 -0.0004 42.1903 4.1646 44.6783 48.3946 71.0933 51.5866 72.9993 52.4776 69.3013 54.7386 59.9193 51.3956 61.9193 49.7836 68.6053 5.5526 42.1893 64.6656 6.8723 59.6806 27.5533 61.9866 29.8573 67.3606 7.5673"></polygon>
            <polygon id="Fill-3" fill="#808184" points="92.9528 29.3185 99.9588 48.9115 100.0458 48.9115 106.9658 29.3185 109.7768 29.3185 101.4298 51.6355 98.5318 51.6355 89.9248 29.3185"></polygon>
            <g id="Group-22" transform="translate(0.000000, 0.999400)">
                <path d="M127.9636,34.9367 C127.6316,33.9857 127.1626,33.1417 126.5586,32.4067 C125.9526,31.6707 125.2176,31.0807 124.3526,30.6337 C123.4876,30.1867 122.5066,29.9627 121.4116,29.9627 C120.2866,29.9627 119.2916,30.1867 118.4266,30.6337 C117.5616,31.0807 116.8266,31.6707 116.2206,32.4067 C115.6156,33.1417 115.1326,33.9917 114.7726,34.9577 C114.4116,35.9247 114.1736,36.9117 114.0586,37.9207 L128.5036,37.9207 C128.4756,36.8827 128.2946,35.8877 127.9636,34.9367 Z M114.4696,43.2617 C114.7436,44.3147 115.1836,45.2597 115.7886,46.0947 C116.3936,46.9317 117.1576,47.6237 118.0816,48.1707 C119.0036,48.7187 120.1136,48.9927 121.4116,48.9927 C123.4016,48.9927 124.9586,48.4737 126.0826,47.4357 C127.2066,46.3977 127.9846,45.0137 128.4176,43.2837 L131.1426,43.2837 C130.5646,45.8207 129.5056,47.7827 127.9636,49.1657 C126.4206,50.5497 124.2366,51.2417 121.4116,51.2417 C119.6516,51.2417 118.1316,50.9317 116.8486,50.3117 C115.5656,49.6927 114.5196,48.8407 113.7126,47.7597 C112.9056,46.6797 112.3076,45.4247 111.9176,43.9977 C111.5286,42.5697 111.3346,41.0637 111.3346,39.4777 C111.3346,38.0077 111.5286,36.5657 111.9176,35.1527 C112.3076,33.7407 112.9056,32.4787 113.7126,31.3687 C114.5196,30.2587 115.5656,29.3647 116.8486,28.6867 C118.1316,28.0097 119.6516,27.6707 121.4116,27.6707 C123.1986,27.6707 124.7266,28.0307 125.9956,28.7517 C127.2636,29.4727 128.2946,30.4177 129.0876,31.5847 C129.8806,32.7527 130.4506,34.0927 130.7966,35.6067 C131.1426,37.1207 131.2866,38.6567 131.2296,40.2137 L114.0586,40.2137 C114.0586,41.1937 114.1956,42.2097 114.4696,43.2617 Z" id="Fill-4" fill="#808184"></path>
                <path d="M137.5867,28.3191 L137.5867,32.1681 L137.6727,32.1681 C138.1927,30.8141 139.1147,29.7251 140.4417,28.9041 C141.7667,28.0821 143.2237,27.6711 144.8087,27.6711 C146.3657,27.6711 147.6707,27.8731 148.7237,28.2761 C149.7757,28.6801 150.6187,29.2491 151.2537,29.9841 C151.8877,30.7201 152.3347,31.6211 152.5937,32.6881 C152.8537,33.7551 152.9837,34.9511 152.9837,36.2781 L152.9837,50.6361 L150.2587,50.6361 L150.2587,36.7101 C150.2587,35.7581 150.1717,34.8711 149.9997,34.0501 C149.8267,33.2281 149.5227,32.5151 149.0917,31.9091 C148.6587,31.3031 148.0747,30.8281 147.3397,30.4821 C146.6037,30.1361 145.6887,29.9621 144.5927,29.9621 C143.4967,29.9621 142.5237,30.1571 141.6737,30.5471 C140.8227,30.9361 140.1017,31.4691 139.5117,32.1471 C138.9197,32.8251 138.4587,33.6321 138.1267,34.5691 C137.7947,35.5061 137.6147,36.5221 137.5867,37.6181 L137.5867,50.6361 L134.8617,50.6361 L134.8617,28.3191 L137.5867,28.3191 Z" id="Fill-6" fill="#808184"></path>
                <path d="M166.9954,28.3191 L166.9954,30.6111 L162.4544,30.6111 L162.4544,45.6631 C162.4544,46.5561 162.5764,47.2561 162.8214,47.7601 C163.0664,48.2651 163.6794,48.5461 164.6604,48.6041 C165.4384,48.6041 166.2174,48.5611 166.9954,48.4731 L166.9954,50.7661 C166.5914,50.7661 166.1884,50.7801 165.7844,50.8091 C165.3794,50.8381 164.9764,50.8531 164.5734,50.8531 C162.7564,50.8531 161.4874,50.5001 160.7674,49.7931 C160.0464,49.0871 159.7004,47.7821 159.7284,45.8791 L159.7284,30.6111 L155.8364,30.6111 L155.8364,28.3191 L159.7284,28.3191 L159.7284,21.6161 L162.4544,21.6161 L162.4544,28.3191 L166.9954,28.3191 Z" id="Fill-8" fill="#808184"></path>
                <path d="M186.5007,50.636 L186.5007,46.614 L186.4137,46.614 C185.6927,48.113 184.6467,49.259 183.2787,50.052 C181.9087,50.845 180.3867,51.242 178.7147,51.242 C177.3017,51.242 176.0987,51.047 175.1037,50.658 C174.1097,50.268 173.3017,49.714 172.6817,48.993 C172.0617,48.273 171.6077,47.392 171.3197,46.355 C171.0307,45.316 170.8867,44.135 170.8867,42.808 L170.8867,28.319 L173.6117,28.319 L173.6117,42.851 C173.6697,44.87 174.1377,46.398 175.0177,47.436 C175.8967,48.473 177.4177,48.993 179.5807,48.993 C180.7627,48.993 181.7717,48.741 182.6077,48.236 C183.4437,47.731 184.1357,47.061 184.6837,46.225 C185.2307,45.389 185.6347,44.43 185.8947,43.348 C186.1537,42.268 186.2837,41.165 186.2837,40.041 L186.2837,28.319 L189.0087,28.319 L189.0087,50.636 L186.5007,50.636 Z" id="Fill-10" fill="#808184"></path>
                <path d="M196.6642,28.3191 L196.6642,33.5521 L196.7502,33.5521 C197.4422,31.7361 198.5162,30.3381 199.9722,29.3581 C201.4282,28.3781 203.1652,27.9301 205.1842,28.0171 L205.1842,30.7411 C203.9442,30.6841 202.8192,30.8491 201.8102,31.2391 C200.8002,31.6281 199.9292,32.1841 199.1932,32.9041 C198.4582,33.6241 197.8892,34.4831 197.4862,35.4771 C197.0822,36.4721 196.8802,37.5611 196.8802,38.7431 L196.8802,50.6361 L194.1552,50.6361 L194.1552,28.3191 L196.6642,28.3191 Z" id="Fill-12" fill="#808184"></path>
                <path d="M222.505,34.9367 C222.173,33.9857 221.704,33.1417 221.1,32.4067 C220.494,31.6707 219.759,31.0807 218.894,30.6337 C218.029,30.1867 217.048,29.9627 215.953,29.9627 C214.828,29.9627 213.833,30.1867 212.968,30.6337 C212.103,31.0807 211.368,31.6707 210.762,32.4067 C210.157,33.1417 209.674,33.9917 209.314,34.9577 C208.953,35.9247 208.715,36.9117 208.6,37.9207 L223.045,37.9207 C223.017,36.8827 222.836,35.8877 222.505,34.9367 M209.011,43.2617 C209.285,44.3147 209.725,45.2597 210.33,46.0947 C210.935,46.9317 211.699,47.6237 212.623,48.1707 C213.545,48.7187 214.655,48.9927 215.953,48.9927 C217.943,48.9927 219.5,48.4737 220.624,47.4357 C221.748,46.3977 222.526,45.0137 222.959,43.2837 L225.684,43.2837 C225.106,45.8207 224.047,47.7827 222.505,49.1657 C220.962,50.5497 218.778,51.2417 215.953,51.2417 C214.193,51.2417 212.673,50.9317 211.39,50.3117 C210.107,49.6927 209.061,48.8407 208.254,47.7597 C207.447,46.6797 206.849,45.4247 206.459,43.9977 C206.07,42.5697 205.876,41.0637 205.876,39.4777 C205.876,38.0077 206.07,36.5657 206.459,35.1527 C206.849,33.7407 207.447,32.4787 208.254,31.3687 C209.061,30.2587 210.107,29.3647 211.39,28.6867 C212.673,28.0097 214.193,27.6707 215.953,27.6707 C217.74,27.6707 219.268,28.0307 220.537,28.7517 C221.805,29.4727 222.836,30.4177 223.629,31.5847 C224.422,32.7527 224.992,34.0927 225.338,35.6067 C225.684,37.1207 225.828,38.6567 225.771,40.2137 L208.6,40.2137 C208.6,41.1937 208.737,42.2097 209.011,43.2617" id="Fill-14" fill="#808184"></path>
                <path d="M232.7117,42.6995 C232.9857,43.6945 233.4037,44.5805 233.9667,45.3595 C234.5277,46.1375 235.2487,46.7585 236.1287,47.2195 C237.0077,47.6815 238.0387,47.9115 239.2207,47.9115 C240.4597,47.9115 241.5127,47.6675 242.3777,47.1765 C243.2427,46.6855 243.9497,46.0445 244.4977,45.2515 C245.0447,44.4595 245.4407,43.5585 245.6867,42.5485 C245.9317,41.5395 246.0547,40.5155 246.0547,39.4785 C246.0547,38.3825 245.9247,37.3235 245.6647,36.2985 C245.4057,35.2755 244.9947,34.3745 244.4317,33.5955 C243.8707,32.8175 243.1417,32.1905 242.2487,31.7145 C241.3547,31.2395 240.2727,31.0015 239.0047,31.0015 C237.7647,31.0015 236.7127,31.2455 235.8477,31.7365 C234.9827,32.2265 234.2907,32.8755 233.7717,33.6825 C233.2517,34.4905 232.8777,35.4125 232.6477,36.4505 C232.4157,37.4885 232.3007,38.5555 232.3007,39.6505 C232.3007,40.6885 232.4367,41.7055 232.7117,42.6995 L232.7117,42.6995 Z M245.9247,50.6365 L245.9247,47.6085 L245.8387,47.6085 C245.2327,48.8485 244.2817,49.7435 242.9837,50.2905 C241.6857,50.8375 240.2587,51.1125 238.7017,51.1125 C236.9717,51.1125 235.4647,50.7945 234.1827,50.1605 C232.8987,49.5265 231.8317,48.6755 230.9817,47.6085 C230.1317,46.5425 229.4897,45.3025 229.0577,43.8895 C228.6247,42.4765 228.4087,40.9775 228.4087,39.3915 C228.4087,37.8055 228.6177,36.3065 229.0357,34.8935 C229.4527,33.4815 230.0877,32.2485 230.9387,31.1955 C231.7887,30.1425 232.8557,29.3075 234.1387,28.6865 C235.4217,28.0675 236.9137,27.7575 238.6147,27.7575 C239.1917,27.7575 239.8107,27.8155 240.4757,27.9305 C241.1377,28.0455 241.8007,28.2405 242.4647,28.5135 C243.1277,28.7885 243.7547,29.1485 244.3457,29.5955 C244.9357,30.0435 245.4347,30.5975 245.8387,31.2605 L245.9247,31.2605 L245.9247,19.7555 L249.6007,19.7555 L249.6007,50.6365 L245.9247,50.6365 Z" id="Fill-16" fill="#99C14D"></path>
                <mask id="mask-2" fill="white">
                    <use xlink:href="#path-1"></use>
                </mask>
                <g id="Clip-19"></g>
                <path d="M255.483,50.636 L259.159,50.636 L259.159,28.276 L255.483,28.276 L255.483,50.636 Z M255.483,24.254 L259.159,24.254 L259.159,19.756 L255.483,19.756 L255.483,24.254 Z" id="Fill-18" fill="#99C14D" mask="url(#mask-2)"></path>
                <polygon id="Fill-20" fill="#99C14D" mask="url(#mask-2)" points="271.0092 50.636 262.7052 28.276 266.8132 28.276 273.0842 46.916 273.1712 46.916 279.2692 28.276 283.1182 28.276 274.9452 50.636"></polygon>
                <path d="M301.4344,34.8503 C301.1034,34.0723 300.6564,33.4013 300.0944,32.8393 C299.5314,32.2763 298.8684,31.8303 298.1044,31.4983 C297.3404,31.1673 296.4964,31.0013 295.5744,31.0013 C294.6224,31.0013 293.7644,31.1673 293.0014,31.4983 C292.2364,31.8303 291.5814,32.2843 291.0324,32.8603 C290.4854,33.4373 290.0524,34.1083 289.7364,34.8713 C289.4184,35.6363 289.2314,36.4503 289.1734,37.3153 L302.0194,37.3153 C301.9604,36.4503 301.7654,35.6283 301.4344,34.8503 M302.3214,49.2083 C300.6494,50.4783 298.5444,51.1123 296.0074,51.1123 C294.2184,51.1123 292.6694,50.8233 291.3574,50.2473 C290.0454,49.6703 288.9424,48.8633 288.0494,47.8253 C287.1544,46.7863 286.4844,45.5473 286.0374,44.1053 C285.5904,42.6643 285.3384,41.0923 285.2814,39.3913 C285.2814,37.6903 285.5404,36.1333 286.0594,34.7203 C286.5784,33.3073 287.3064,32.0823 288.2434,31.0443 C289.1804,30.0063 290.2904,29.1993 291.5744,28.6223 C292.8564,28.0453 294.2624,27.7573 295.7914,27.7573 C297.7804,27.7573 299.4304,28.1683 300.7434,28.9903 C302.0544,29.8113 303.1064,30.8573 303.9004,32.1253 C304.6924,33.3943 305.2404,34.7783 305.5434,36.2773 C305.8464,37.7773 305.9694,39.2043 305.9114,40.5593 L289.1734,40.5593 C289.1444,41.5403 289.2594,42.4693 289.5204,43.3483 C289.7794,44.2283 290.1964,45.0073 290.7734,45.6843 C291.3504,46.3613 292.0854,46.9033 292.9794,47.3063 C293.8734,47.7103 294.9264,47.9113 296.1364,47.9113 C297.6934,47.9113 298.9694,47.5513 299.9644,46.8303 C300.9594,46.1103 301.6144,45.0143 301.9324,43.5433 L305.5644,43.5433 C305.0744,46.0513 303.9934,47.9403 302.3214,49.2083" id="Fill-21" fill="#99C14D" mask="url(#mask-2)"></path>
            </g>
        </g>
    </g>
</svg>